<svg width="40" height="40" viewBox="0 0 40 40" fill="none" xmlns="http://www.w3.org/2000/svg">
<path fill-rule="evenodd" clip-rule="evenodd" d="M20.0001 1.6665C9.87508 1.6665 1.66675 9.87484 1.66675 19.9998C1.66675 30.1248 9.87508 38.3332 20.0001 38.3332C30.1251 38.3332 38.3334 30.1248 38.3334 19.9998C38.3334 9.87484 30.1251 1.6665 20.0001 1.6665ZM27.9467 16.8998C28.0931 16.7326 28.2045 16.5377 28.2744 16.3268C28.3443 16.1158 28.3713 15.893 28.3539 15.6715C28.3364 15.4499 28.2748 15.2341 28.1727 15.0367C28.0706 14.8393 27.9301 14.6643 27.7593 14.5221C27.5886 14.3798 27.3911 14.2731 27.1786 14.2083C26.966 14.1434 26.7426 14.1218 26.5216 14.1445C26.3005 14.1673 26.0862 14.2341 25.8913 14.3409C25.6964 14.4477 25.5249 14.5924 25.3867 14.7665L18.2201 23.3648L14.5117 19.6548C14.1974 19.3512 13.7764 19.1832 13.3394 19.187C12.9024 19.1908 12.4844 19.3661 12.1754 19.6751C11.8664 19.9842 11.6911 20.4022 11.6873 20.8392C11.6835 21.2762 11.8515 21.6972 12.1551 22.0115L17.1551 27.0115C17.3188 27.1752 17.5149 27.3029 17.7308 27.3866C17.9466 27.4703 18.1776 27.5081 18.4089 27.4976C18.6401 27.4871 18.8667 27.4285 19.0741 27.3256C19.2815 27.2227 19.4652 27.0777 19.6134 26.8998L27.9467 16.8998Z" fill="#49B0C1"/>
</svg>
