<svg width="29" height="27" viewBox="0 0 29 27" fill="none" xmlns="http://www.w3.org/2000/svg">
<path d="M20.9033 0.231445C22.0116 0.231445 23.0531 0.441812 24.028 0.862546C25.0029 1.28328 25.8597 1.86307 26.5986 2.60192C27.3374 3.34077 27.9224 4.20276 28.3535 5.18789C28.7844 6.17303 29 7.21973 29 8.328C29 9.5389 28.8717 10.6318 28.6152 11.6066C28.3586 12.5815 28.0252 13.4692 27.6147 14.2696C27.2042 15.07 26.7527 15.7934 26.2601 16.44C25.7675 17.0864 25.2852 17.6969 24.813 18.2717L24.413 18.7335C24.0434 19.1849 23.5611 19.6878 22.9659 20.242C22.3707 20.7961 21.7345 21.3603 21.0574 21.935C20.3799 22.5098 19.6977 23.069 19.0101 23.6129C18.3226 24.1567 17.6915 24.6391 17.1167 25.0598C16.542 25.4805 16.065 25.8296 15.6852 26.1067C15.3055 26.3837 15.0952 26.5428 15.0541 26.5836C14.8899 26.7068 14.7052 26.7686 14.4999 26.7686C14.2742 26.7686 14.0895 26.7068 13.9458 26.5836C13.8842 26.5427 13.6687 26.3836 13.2993 26.1067C12.9299 25.8296 12.4578 25.4806 11.8832 25.0598C11.3085 24.6392 10.6774 24.1568 9.98986 23.6129C9.30232 23.069 8.61991 22.5098 7.94263 21.935C7.26535 21.3603 6.62912 20.7959 6.03394 20.242C5.43875 19.6876 4.95645 19.1848 4.58703 18.7335L4.18681 18.2717C3.71477 17.6969 3.23247 17.0864 2.7399 16.44C2.24733 15.7933 1.79582 15.07 1.38534 14.2696C0.974871 13.4692 0.641363 12.5815 0.384818 11.6066C0.128273 10.6318 0 9.5389 0 8.328C0 7.21973 0.215498 6.17303 0.646493 5.18789C1.07749 4.20276 1.66241 3.34077 2.40126 2.60192C3.14011 1.86307 3.99697 1.28328 4.97184 0.862546C5.94671 0.441812 6.98829 0.231445 8.09656 0.231445C9.38955 0.231445 10.5902 0.513645 11.6985 1.07804C12.8067 1.64244 13.7406 2.41721 14.4999 3.40234C15.2593 2.41721 16.1931 1.64244 17.3014 1.07804C18.4097 0.513645 19.6103 0.231445 20.9033 0.231445Z" fill="white"/>
</svg>
