<svg width="14" height="14" viewBox="0 0 14 14" fill="none" xmlns="http://www.w3.org/2000/svg">
<path d="M13.8055 11.6415L11.8316 13.5995C11.5403 13.8983 11.1541 13.9995 10.7779 14C9.11461 13.9502 7.54239 13.1331 6.25149 12.2942C4.13257 10.7526 2.18837 8.84123 0.968149 6.53137C0.500152 5.56277 -0.0489746 4.32691 0.00349043 3.24577C0.00816877 2.83907 0.117765 2.43992 0.404194 2.17777L2.37803 0.204923C2.7879 -0.143712 3.18428 -0.0231717 3.44657 0.382922L5.03453 3.39411C5.20167 3.75084 5.10579 4.13307 4.85643 4.38797L4.12922 5.1148C4.08433 5.1763 4.05574 5.2463 4.05502 5.32248C4.33388 6.40191 5.17867 7.3968 5.92496 8.08149C6.67125 8.76618 7.47342 9.6938 8.5147 9.9134C8.6434 9.9493 8.80105 9.96191 8.89314 9.87631L9.73909 9.01597C10.0307 8.79495 10.4518 8.68692 10.7631 8.86765H10.7779L13.6422 10.5586C14.0627 10.8222 14.1065 11.3316 13.8055 11.6415Z" fill="white"/>
</svg>
